<mxfile host="Electron" agent="Mozilla/5.0 (Macintosh; Intel Mac OS X 10_15_7) AppleWebKit/537.36 (KHTML, like Gecko) draw.io/26.2.2 Chrome/134.0.6998.178 Electron/35.1.2 Safari/537.36" version="26.2.2">
  <diagram name="Strona-1" id="8rQZV9c1amdXB_IJOCFU">
    <mxGraphModel dx="1203" dy="1597" grid="1" gridSize="10" guides="1" tooltips="1" connect="1" arrows="1" fold="1" page="1" pageScale="1" pageWidth="827" pageHeight="1169" math="0" shadow="0">
      <root>
        <mxCell id="0" />
        <mxCell id="1" parent="0" />
        <mxCell id="caMe9D_hUZpjlZ4NZyQl-1" value="&lt;font style=&quot;font-size: 20px;&quot;&gt;Generowanie raportów logistycznych&lt;/font&gt;" style="text;html=1;align=center;verticalAlign=middle;resizable=0;points=[];autosize=1;strokeColor=none;fillColor=none;" parent="1" vertex="1">
          <mxGeometry x="239" y="33" width="350" height="40" as="geometry" />
        </mxCell>
        <mxCell id="caMe9D_hUZpjlZ4NZyQl-5" style="edgeStyle=orthogonalEdgeStyle;rounded=0;orthogonalLoop=1;jettySize=auto;html=1;" parent="1" source="caMe9D_hUZpjlZ4NZyQl-2" target="caMe9D_hUZpjlZ4NZyQl-4" edge="1">
          <mxGeometry relative="1" as="geometry">
            <Array as="points">
              <mxPoint x="250" y="585" />
              <mxPoint x="250" y="515" />
            </Array>
          </mxGeometry>
        </mxCell>
        <mxCell id="caMe9D_hUZpjlZ4NZyQl-2" value="&lt;font style=&quot;font-size: 18px;&quot;&gt;Kierownik działu logistyki&lt;/font&gt;" style="shape=umlActor;verticalLabelPosition=bottom;verticalAlign=top;html=1;outlineConnect=0;" parent="1" vertex="1">
          <mxGeometry x="60" y="415" width="150" height="340" as="geometry" />
        </mxCell>
        <mxCell id="caMe9D_hUZpjlZ4NZyQl-3" value="&lt;font style=&quot;font-size: 15px;&quot;&gt;System: Logistyka i raporty&lt;/font&gt;" style="shape=umlFrame;whiteSpace=wrap;html=1;pointerEvents=0;width=110;height=70;" parent="1" vertex="1">
          <mxGeometry x="280" y="180" width="390" height="670" as="geometry" />
        </mxCell>
        <mxCell id="caMe9D_hUZpjlZ4NZyQl-4" value="&lt;font style=&quot;font-size: 20px;&quot;&gt;Generowanie raportów stanów magazynowych&lt;/font&gt;" style="ellipse;whiteSpace=wrap;html=1;" parent="1" vertex="1">
          <mxGeometry x="330" y="425" width="290" height="180" as="geometry" />
        </mxCell>
      </root>
    </mxGraphModel>
  </diagram>
</mxfile>
